<?xml version="1.0" standalone="no"?>
<!DOCTYPE svg PUBLIC "-//W3C//DTD SVG 20010904//EN"
 "http://www.w3.org/TR/2001/REC-SVG-20010904/DTD/svg10.dtd">
<svg version="1.0" xmlns="http://www.w3.org/2000/svg"
 width="1488.000000pt" height="1488.000000pt" viewBox="0 0 1488.000000 1488.000000"
 preserveAspectRatio="xMidYMid meet">
<metadata>
Created by potrace 1.14, written by Peter Selinger 2001-2017
</metadata>
<g transform="translate(0.000000,1488.000000) scale(0.100000,-0.100000)"
fill="#000000" stroke="none">
<path d="M2870 13894 c-148 -22 -225 -60 -315 -155 -73 -77 -98 -121 -122
-212 -15 -54 -17 -114 -15 -461 2 -463 7 -436 -90 -436 -33 0 -164 -11 -291
-25 -221 -25 -241 -29 -427 -86 -172 -53 -217 -72 -385 -161 -212 -111 -203
-105 -408 -276 -117 -97 -172 -153 -265 -265 -174 -210 -171 -207 -280 -412
-90 -170 -107 -211 -162 -390 -57 -186 -63 -212 -76 -365 -12 -141 -14 -696
-11 -3830 2 -2860 6 -3684 16 -3753 7 -49 39 -177 72 -285 53 -171 72 -218
146 -357 122 -227 134 -245 252 -390 136 -166 185 -215 355 -355 143 -117 267
-195 471 -295 130 -64 436 -158 570 -177 126 -17 10644 -25 10905 -8 210 14
257 23 470 90 172 55 265 97 465 211 164 93 415 303 542 454 160 190 198 245
301 435 92 169 106 202 161 380 64 207 72 254 96 505 22 240 23 6996 0 7245
-22 241 -32 297 -85 475 -65 218 -73 237 -184 439 -80 146 -119 204 -220 329
-69 84 -148 175 -178 204 -82 79 -306 260 -368 297 -166 99 -363 197 -445 221
-49 15 -137 42 -195 60 -144 46 -495 85 -768 85 -170 0 -191 2 -205 18 -15 17
-17 59 -17 388 -1 203 -5 399 -9 436 -13 100 -59 190 -139 271 -106 109 -202
148 -361 149 -87 1 -104 -3 -175 -32 -137 -57 -259 -193 -297 -330 -8 -32 -12
-161 -13 -452 -1 -395 -2 -408 -21 -428 -20 -20 -31 -20 -955 -20 -871 0 -936
1 -947 17 -10 13 -13 116 -13 433 0 391 -1 420 -20 475 -28 80 -71 144 -142
210 -64 60 -105 83 -183 108 -181 56 -358 11 -493 -126 -85 -87 -128 -166
-142 -262 -5 -38 -10 -239 -10 -446 0 -351 -1 -377 -18 -392 -17 -16 -97 -17
-949 -17 -877 0 -931 1 -946 18 -14 15 -16 70 -19 447 l-3 430 -36 76 c-24 50
-57 96 -95 136 -111 113 -203 153 -354 155 -157 1 -240 -33 -352 -145 -83 -82
-124 -154 -138 -243 -6 -32 -10 -235 -10 -450 0 -296 -3 -394 -12 -407 -12
-16 -83 -17 -952 -17 -689 0 -942 3 -952 11 -11 9 -14 83 -14 403 0 215 -4
417 -9 448 -15 90 -56 165 -138 249 -56 58 -91 84 -143 108 -88 41 -173 56
-250 45z m101 -316 c53 -17 87 -46 112 -91 l22 -42 0 -1205 c0 -1185 0 -1206
-20 -1245 -26 -51 -91 -100 -145 -109 -79 -12 -162 32 -203 107 l-22 42 0
1205 0 1205 26 40 c15 22 38 51 52 64 41 37 117 50 178 29z m2923 0 c49 -14
70 -30 105 -83 l26 -40 3 -1194 c3 -1306 5 -1251 -55 -1315 -90 -97 -242 -77
-305 40 l-27 50 -1 1196 c-1 1174 -1 1197 18 1239 46 99 130 137 236 107z
m2928 0 c53 -16 102 -73 122 -141 14 -49 16 -180 16 -1209 0 -1121 -1 -1155
-20 -1207 -21 -60 -39 -83 -84 -110 -97 -58 -216 -19 -276 92 -20 37 -20 48
-20 1227 l0 1189 24 54 c42 96 133 137 238 105z m2919 0 c56 -19 89 -47 114
-101 l25 -51 0 -1178 c0 -1327 4 -1247 -73 -1313 -113 -97 -264 -51 -314 95
-10 27 -13 302 -13 1205 0 1108 1 1173 18 1218 42 109 141 160 243 125z m2814
-7005 c0 -3655 7 -3385 -97 -3718 -48 -155 -103 -275 -209 -456 -50 -87 -234
-309 -313 -379 -156 -138 -257 -211 -406 -292 -170 -92 -185 -98 -375 -158
-98 -31 -175 -47 -315 -65 l-185 -25 -5214 0 c-5193 0 -5215 0 -5395 21 -100
11 -208 29 -241 39 -237 74 -324 106 -383 139 -37 21 -103 57 -147 81 -66 35
-185 117 -205 140 -3 3 -39 33 -80 67 -102 83 -188 177 -312 338 -39 51 -138
215 -138 229 0 2 -15 30 -33 63 -39 70 -66 139 -102 258 -15 50 -33 110 -41
133 -8 24 -19 83 -24 130 -5 48 -14 116 -20 152 -6 42 -10 1177 -10 3270 l0
3205 7122 -2 7123 -2 0 -3168z"/>
<path d="M6753 8805 c-41 -18 -72 -59 -278 -375 -494 -755 -805 -1225 -813
-1228 -4 -1 -19 17 -34 40 -14 24 -53 81 -85 128 -33 47 -89 128 -124 180
-344 502 -325 480 -415 480 -63 0 -114 -33 -143 -93 -24 -49 -26 -84 -9 -124
12 -26 82 -133 210 -318 30 -44 124 -181 208 -305 84 -124 189 -277 232 -340
44 -63 96 -141 116 -172 20 -32 40 -57 44 -58 14 0 6 -12 500 740 92 140 245
373 340 517 395 600 471 718 480 750 25 91 -64 194 -165 193 -18 -1 -46 -7
-64 -15z"/>
<path d="M1766 8650 c-40 -12 -95 -67 -117 -116 -18 -40 -19 -82 -19 -866 -1
-454 2 -844 6 -869 14 -84 79 -150 168 -169 35 -7 337 -10 951 -8 l900 3 41
22 c56 30 91 74 109 137 14 47 15 158 13 877 l-3 824 -28 57 c-16 32 -43 68
-65 85 l-37 28 -945 2 c-523 1 -958 -2 -974 -7z"/>
<path d="M8080 8654 c-88 -30 -100 -37 -128 -82 -16 -26 -33 -63 -36 -83 -12
-69 -8 -1664 4 -1711 18 -65 92 -133 162 -147 38 -8 317 -11 954 -9 l899 3 43
23 c50 27 95 84 111 144 9 32 11 257 9 873 l-3 831 -26 49 c-15 30 -42 62 -68
80 l-43 30 -931 2 c-513 1 -939 -1 -947 -3z"/>
<path d="M11216 8653 c-32 -5 -92 -40 -118 -70 -10 -10 -25 -37 -34 -58 -16
-37 -17 -109 -15 -887 2 -810 3 -849 21 -890 24 -54 52 -81 110 -105 42 -17
97 -18 970 -18 778 0 929 2 950 14 54 30 98 74 116 114 18 39 19 83 19 897 l0
855 -22 35 c-12 19 -40 53 -63 75 l-41 40 -932 1 c-513 1 -945 -1 -961 -3z"/>
<path d="M1755 5421 c-22 -10 -55 -34 -72 -54 -65 -74 -64 -56 -61 -968 3
-769 4 -827 21 -864 25 -55 62 -92 116 -112 43 -17 109 -18 946 -18 495 0 922
4 949 8 39 7 58 18 95 55 28 29 51 63 59 88 9 31 12 247 12 875 0 794 -1 836
-19 874 -25 53 -72 102 -116 120 -29 13 -172 15 -962 15 -876 0 -930 -1 -968
-19z"/>
<path d="M4895 5424 c-45 -24 -95 -75 -114 -114 -14 -31 -16 -121 -19 -845 -1
-484 1 -835 7 -873 12 -77 51 -130 119 -164 l47 -23 925 0 c741 0 932 3 962
13 55 20 114 92 128 156 7 37 10 310 8 882 l-3 829 -25 44 c-14 24 -45 58 -68
75 l-44 31 -946 2 c-848 2 -950 1 -977 -13z"/>
<path d="M8035 5426 c-41 -18 -100 -85 -116 -132 -11 -32 -14 -192 -14 -874 0
-783 1 -838 18 -882 22 -57 71 -103 129 -120 64 -19 1857 -19 1910 0 46 17
111 88 126 140 9 29 12 261 12 864 0 896 2 868 -55 943 -15 19 -46 43 -69 54
-42 21 -55 21 -977 21 -747 -1 -940 -3 -964 -14z"/>
<path d="M11162 5414 c-35 -17 -63 -41 -80 -67 -26 -39 -27 -48 -33 -211 -3
-94 -5 -486 -5 -871 l2 -700 24 -45 c36 -63 91 -99 170 -109 36 -4 463 -8 950
-7 990 1 922 -4 992 74 21 23 41 54 45 69 5 16 8 415 8 889 l0 861 -28 41
c-16 22 -47 53 -69 69 l-41 28 -941 3 -941 2 -53 -26z"/>
</g>
</svg>
