<?xml version="1.0" standalone="no"?>
<!DOCTYPE svg PUBLIC "-//W3C//DTD SVG 20010904//EN"
 "http://www.w3.org/TR/2001/REC-SVG-20010904/DTD/svg10.dtd">
<svg version="1.0" xmlns="http://www.w3.org/2000/svg"
 width="1576.000000pt" height="1576.000000pt" viewBox="0 0 1576.000000 1576.000000"
 preserveAspectRatio="xMidYMid meet">
<metadata>
Created by potrace 1.14, written by Peter Selinger 2001-2017
</metadata>
<g transform="translate(0.000000,1576.000000) scale(0.100000,-0.100000)"
fill="#000000" stroke="none">
<path d="M3346 14283 c-4 -4 -25 -6 -46 -4 -23 1 -40 -2 -40 -8 0 -6 -7 -8
-15 -5 -8 4 -22 1 -30 -6 -8 -6 -18 -9 -22 -7 -20 13 -143 -63 -194 -119 -48
-54 -99 -129 -99 -148 0 -8 -4 -17 -9 -21 -6 -3 -10 -13 -11 -23 -3 -54 -6
-72 -12 -72 -5 0 -7 -18 -5 -40 2 -22 0 -40 -3 -40 -8 0 -10 -171 -2 -184 7
-12 6 -516 -2 -523 -3 -3 -2 -13 3 -22 15 -31 -18 -46 -104 -47 -44 0 -107 -4
-140 -8 -54 -6 -171 -17 -202 -19 -7 0 -13 -3 -13 -6 0 -3 -32 -7 -71 -8 -39
-2 -77 -7 -84 -13 -6 -5 -14 -7 -18 -4 -3 3 -14 1 -25 -5 -10 -5 -30 -12 -44
-15 -26 -4 -145 -41 -253 -78 -70 -24 -192 -84 -382 -189 -68 -37 -92 -55
-275 -207 -106 -87 -163 -145 -249 -248 -176 -214 -175 -212 -276 -404 -22
-41 -52 -96 -66 -123 -24 -45 -51 -111 -53 -132 0 -5 -5 -21 -11 -35 -12 -26
-47 -143 -45 -147 1 -2 -5 -18 -14 -38 -8 -19 -12 -35 -9 -35 3 0 -2 -14 -10
-31 -9 -17 -14 -33 -11 -37 3 -3 1 -11 -5 -18 -6 -8 -9 -20 -6 -29 4 -8 2 -17
-3 -20 -5 -3 -8 -30 -7 -60 2 -30 0 -55 -3 -55 -4 0 -8 -28 -10 -62 -6 -101
-4 -7305 2 -7388 14 -184 19 -224 29 -231 7 -4 9 -11 6 -17 -5 -7 24 -114 50
-182 4 -8 5 -18 5 -22 -1 -5 2 -8 6 -8 4 0 8 -8 9 -17 2 -39 47 -171 72 -215
48 -82 83 -146 103 -188 12 -25 26 -48 31 -51 5 -3 8 -10 8 -15 -2 -29 234
-331 336 -430 76 -75 349 -293 366 -294 5 0 20 -9 34 -20 14 -11 29 -17 34
-14 5 3 9 1 9 -4 0 -5 34 -26 75 -46 41 -20 77 -41 80 -47 4 -5 11 -7 16 -4 5
4 9 3 9 -2 0 -4 19 -16 43 -27 23 -10 51 -23 62 -28 12 -5 30 -11 40 -13 11
-2 21 -4 23 -5 1 -2 7 -4 12 -5 6 -1 13 -4 18 -5 4 -2 12 -4 17 -5 6 -1 19 -5
30 -9 31 -12 62 -22 172 -55 69 -21 127 -32 177 -34 42 -1 76 -5 76 -9 0 -5
30 -9 68 -9 245 -5 10692 -2 10752 3 41 3 112 8 158 11 45 3 87 9 92 12 11 7
47 16 68 17 6 1 12 5 12 10 0 5 5 6 10 3 6 -4 18 -1 27 7 9 7 18 11 20 9 4 -3
83 21 208 62 81 26 265 117 265 130 0 6 3 8 6 4 3 -3 24 5 45 19 21 13 41 24
45 24 35 0 416 307 480 387 21 27 63 77 94 113 95 111 161 202 183 250 4 8 23
42 41 75 19 33 54 98 78 145 24 47 45 87 48 90 6 6 12 28 14 50 0 8 3 17 6 20
8 7 71 208 75 238 2 13 9 29 15 37 7 8 10 22 6 30 -3 8 -2 15 2 15 8 0 14 34
16 92 0 21 5 38 10 38 4 0 6 20 4 45 -2 25 0 45 5 45 4 0 7 19 7 43 -1 23 2
71 7 107 9 80 9 7037 -1 7135 -3 39 -6 89 -6 113 1 23 -3 42 -7 42 -4 0 -9 19
-9 43 -2 44 -10 122 -13 122 -1 0 -4 16 -6 35 -2 19 -9 49 -16 65 -7 17 -11
33 -11 38 1 4 -5 24 -13 43 -13 31 -32 95 -50 164 -2 8 -11 32 -19 53 -9 20
-13 37 -10 37 4 0 0 8 -9 18 -10 10 -14 22 -10 25 3 4 1 7 -6 7 -7 0 -10 4 -7
9 3 5 -2 19 -12 32 -10 13 -32 51 -49 84 -17 33 -43 80 -57 105 -13 25 -34 63
-46 85 -12 22 -43 65 -69 95 -26 30 -64 78 -86 105 -22 28 -49 61 -60 75 -40
50 -152 158 -235 226 -135 111 -220 175 -220 167 0 -5 -4 -3 -8 2 -9 13 -33
27 -117 70 -80 41 -115 60 -166 91 -20 13 -45 24 -55 26 -11 2 -21 6 -24 9 -3
3 -39 16 -80 28 -41 13 -87 27 -102 31 -14 5 -29 6 -32 3 -3 -4 -6 -1 -6 6 0
7 -7 11 -15 8 -8 -4 -17 -2 -21 4 -3 6 -12 8 -20 5 -8 -3 -14 -2 -14 2 0 12
-108 40 -180 47 -36 4 -83 9 -105 11 -51 5 -136 14 -200 21 -27 3 -144 6 -259
8 -168 2 -211 6 -223 18 -13 12 -15 78 -17 433 -1 244 -5 425 -11 434 -5 8
-11 23 -12 33 -8 47 -64 138 -123 198 -64 66 -153 125 -171 114 -5 -4 -9 -2
-9 3 0 15 -75 28 -185 33 -32 2 -115 -10 -131 -19 -10 -5 -44 -20 -74 -33 -69
-30 -189 -146 -217 -209 -43 -99 -48 -117 -48 -197 0 -46 -3 -83 -7 -83 -4 0
-5 -48 -3 -107 4 -112 8 -474 4 -483 -1 -3 -2 -27 -4 -53 -3 -87 85 -80 -975
-80 -892 -1 -943 0 -952 17 -6 11 -10 176 -10 434 1 281 -3 421 -10 429 -6 7
-8 13 -5 13 3 0 -2 21 -11 48 -24 65 -85 154 -140 203 -50 44 -152 98 -189
101 -13 2 -23 5 -23 8 0 6 -66 13 -115 12 -16 -1 -44 -1 -62 -1 -17 0 -34 -5
-38 -11 -3 -6 -11 -8 -16 -5 -5 4 -15 3 -21 -2 -7 -4 -18 -8 -24 -9 -6 -1 -37
-14 -68 -30 -39 -19 -80 -52 -127 -102 -38 -41 -69 -79 -69 -85 0 -6 -6 -18
-13 -26 -17 -21 -34 -75 -44 -136 -4 -27 -8 -225 -8 -440 0 -333 -2 -392 -15
-405 -13 -13 -132 -15 -953 -14 -832 1 -940 2 -953 16 -14 14 -16 72 -18 434
-2 231 -5 426 -7 434 -18 58 -33 96 -38 100 -3 3 -15 23 -26 45 -42 84 -177
189 -284 220 -71 21 -245 20 -274 -2 -7 -5 -23 -10 -36 -11 -13 0 -27 -5 -30
-9 -3 -4 -13 -9 -21 -11 -21 -5 -149 -111 -162 -135 -6 -12 -19 -30 -29 -40
-10 -11 -16 -24 -13 -29 3 -4 1 -8 -4 -8 -10 0 -43 -73 -41 -88 1 -4 0 -9 -1
-12 -10 -28 -13 -101 -15 -464 -2 -393 -4 -419 -21 -429 -21 -12 -1894 -16
-1894 -4 0 4 -6 7 -12 7 -10 0 -13 90 -15 413 -2 500 -1 467 -11 467 -4 0 -9
12 -10 27 -1 15 -8 30 -15 35 -6 4 -9 8 -4 8 4 0 -5 23 -20 51 -34 62 -144
168 -204 196 -78 37 -138 56 -159 50 -11 -3 -23 -1 -26 4 -6 11 -38 12 -48 2z"/>
</g>
</svg>
